<svg width="680" height="170" viewBox="0 0 680 170" fill="none" xmlns="http://www.w3.org/2000/svg">
<path d="M57.666 47.9062H83.4961C88.8997 47.9062 93.5384 48.7201 97.4121 50.3477C101.286 51.9753 104.264 54.3841 106.348 57.5742C108.431 60.7643 109.473 64.6868 109.473 69.3418C109.473 73.0202 108.822 76.2103 107.52 78.9121C106.217 81.6139 104.378 83.8763 102.002 85.6992C99.6582 87.5221 96.8913 88.9544 93.7012 89.9961L89.502 92.1445H66.6992L66.6016 81.5488H83.6426C86.4095 81.5488 88.7044 81.0605 90.5273 80.084C92.3503 79.1074 93.7174 77.7565 94.6289 76.0312C95.5729 74.306 96.0449 72.3366 96.0449 70.123C96.0449 67.7467 95.5892 65.696 94.6777 63.9707C93.7663 62.2129 92.3828 60.862 90.5273 59.918C88.6719 58.974 86.3281 58.502 83.4961 58.502H71.0938V119H57.666V47.9062ZM97.8027 119L81.3477 87.1641L95.5566 87.1152L112.207 118.316V119H97.8027ZM168.359 108.453V119H130.566V108.453H168.359ZM134.668 47.9062V119H121.24V47.9062H134.668ZM163.428 77.252V87.5547H130.566V77.252H163.428ZM168.213 47.9062V58.502H130.566V47.9062H168.213ZM214.893 100.543C214.893 99.1758 214.681 97.9551 214.258 96.8809C213.867 95.7741 213.135 94.7812 212.061 93.9023C211.019 92.9909 209.538 92.112 207.617 91.2656C205.729 90.3867 203.288 89.4753 200.293 88.5312C196.973 87.4896 193.88 86.3177 191.016 85.0156C188.151 83.7135 185.628 82.1999 183.447 80.4746C181.299 78.7493 179.622 76.7637 178.418 74.5176C177.214 72.2389 176.611 69.6022 176.611 66.6074C176.611 63.6777 177.23 61.0085 178.467 58.5996C179.736 56.1908 181.527 54.1237 183.838 52.3984C186.149 50.6406 188.867 49.2897 191.992 48.3457C195.15 47.4017 198.633 46.9297 202.441 46.9297C207.715 46.9297 212.272 47.89 216.113 49.8105C219.987 51.7311 222.982 54.3353 225.098 57.623C227.214 60.9108 228.271 64.6055 228.271 68.707H214.893C214.893 66.4935 214.421 64.5404 213.477 62.8477C212.565 61.1549 211.165 59.8203 209.277 58.8438C207.422 57.8672 205.078 57.3789 202.246 57.3789C199.512 57.3789 197.233 57.7858 195.41 58.5996C193.62 59.4134 192.269 60.5202 191.357 61.9199C190.479 63.3197 190.039 64.8822 190.039 66.6074C190.039 67.9095 190.348 69.0814 190.967 70.123C191.585 71.1322 192.513 72.0924 193.75 73.0039C194.987 73.8828 196.517 74.7129 198.34 75.4941C200.195 76.2428 202.344 76.9915 204.785 77.7402C208.691 78.9121 212.109 80.2142 215.039 81.6465C218.001 83.0788 220.459 84.7064 222.412 86.5293C224.398 88.3522 225.879 90.403 226.855 92.6816C227.865 94.9603 228.369 97.5482 228.369 100.445C228.369 103.505 227.767 106.24 226.562 108.648C225.358 111.057 223.633 113.108 221.387 114.801C219.141 116.493 216.439 117.779 213.281 118.658C210.156 119.537 206.657 119.977 202.783 119.977C199.333 119.977 195.915 119.521 192.529 118.609C189.176 117.665 186.133 116.266 183.398 114.41C180.664 112.522 178.483 110.146 176.855 107.281C175.228 104.384 174.414 100.999 174.414 97.125H187.891C187.891 99.3711 188.249 101.292 188.965 102.887C189.714 104.449 190.755 105.735 192.09 106.744C193.457 107.721 195.052 108.437 196.875 108.893C198.698 109.348 200.667 109.576 202.783 109.576C205.518 109.576 207.764 109.202 209.521 108.453C211.312 107.672 212.646 106.598 213.525 105.23C214.437 103.863 214.893 102.301 214.893 100.543ZM377.881 47.9062H391.309V95.123C391.309 100.559 390.137 105.133 387.793 108.844C385.449 112.522 382.259 115.305 378.223 117.193C374.186 119.049 369.596 119.977 364.453 119.977C359.245 119.977 354.606 119.049 350.537 117.193C346.468 115.305 343.278 112.522 340.967 108.844C338.656 105.133 337.5 100.559 337.5 95.123V47.9062H350.928V95.123C350.928 98.4434 351.481 101.161 352.588 103.277C353.695 105.361 355.257 106.907 357.275 107.916C359.294 108.925 361.686 109.43 364.453 109.43C367.253 109.43 369.645 108.925 371.631 107.916C373.649 106.907 375.195 105.361 376.27 103.277C377.344 101.161 377.881 98.4434 377.881 95.123V47.9062ZM404.053 47.9062H429.883C435.286 47.9062 439.925 48.7201 443.799 50.3477C447.673 51.9753 450.651 54.3841 452.734 57.5742C454.818 60.7643 455.859 64.6868 455.859 69.3418C455.859 73.0202 455.208 76.2103 453.906 78.9121C452.604 81.6139 450.765 83.8763 448.389 85.6992C446.045 87.5221 443.278 88.9544 440.088 89.9961L435.889 92.1445H413.086L412.988 81.5488H430.029C432.796 81.5488 435.091 81.0605 436.914 80.084C438.737 79.1074 440.104 77.7565 441.016 76.0312C441.96 74.306 442.432 72.3366 442.432 70.123C442.432 67.7467 441.976 65.696 441.064 63.9707C440.153 62.2129 438.77 60.862 436.914 59.918C435.059 58.974 432.715 58.502 429.883 58.502H417.48V119H404.053V47.9062ZM444.189 119L427.734 87.1641L441.943 87.1152L458.594 118.316V119H444.189ZM509.229 95.6113H522.656C522.298 100.364 520.98 104.579 518.701 108.258C516.423 111.904 513.249 114.768 509.18 116.852C505.111 118.935 500.179 119.977 494.385 119.977C489.925 119.977 485.905 119.195 482.324 117.633C478.776 116.038 475.732 113.775 473.193 110.846C470.687 107.883 468.766 104.335 467.432 100.201C466.097 96.0345 465.43 91.3633 465.43 86.1875V80.7676C465.43 75.5918 466.113 70.9206 467.48 66.7539C468.848 62.5872 470.801 59.0391 473.34 56.1094C475.911 53.1471 478.988 50.8685 482.568 49.2734C486.182 47.6784 490.218 46.8809 494.678 46.8809C500.472 46.8809 505.371 47.9551 509.375 50.1035C513.379 52.2194 516.488 55.1328 518.701 58.8438C520.915 62.5547 522.249 66.819 522.705 71.6367H509.277C509.017 68.6419 508.366 66.1029 507.324 64.0195C506.315 61.9362 504.785 60.3574 502.734 59.2832C500.716 58.1764 498.031 57.623 494.678 57.623C492.074 57.623 489.779 58.1113 487.793 59.0879C485.84 60.0645 484.212 61.5293 482.91 63.4824C481.608 65.403 480.632 67.8118 479.98 70.709C479.329 73.5736 479.004 76.8939 479.004 80.6699V86.1875C479.004 89.8008 479.297 93.0397 479.883 95.9043C480.469 98.7689 481.38 101.194 482.617 103.18C483.854 105.165 485.449 106.679 487.402 107.721C489.355 108.762 491.683 109.283 494.385 109.283C497.673 109.283 500.342 108.762 502.393 107.721C504.476 106.679 506.055 105.149 507.129 103.131C508.236 101.113 508.936 98.6061 509.229 95.6113ZM580.176 108.453V119H542.383V108.453H580.176ZM546.484 47.9062V119H533.057V47.9062H546.484ZM575.244 77.252V87.5547H542.383V77.252H575.244ZM580.029 47.9062V58.502H542.383V47.9062H580.029ZM584.619 117.11C584.619 116.524 584.819 116.031 585.22 115.631C585.62 115.23 586.162 115.03 586.846 115.03C587.529 115.03 588.071 115.23 588.472 115.631C588.872 116.031 589.072 116.524 589.072 117.11C589.072 117.687 588.872 118.175 588.472 118.575C588.071 118.966 587.529 119.161 586.846 119.161C586.162 119.161 585.62 118.966 585.22 118.575C584.819 118.175 584.619 117.687 584.619 117.11ZM605.142 97.6719H609.17V111.837C609.17 113.468 608.818 114.84 608.115 115.953C607.412 117.057 606.455 117.892 605.244 118.458C604.033 119.015 602.656 119.293 601.113 119.293C599.551 119.293 598.159 119.015 596.938 118.458C595.718 117.892 594.761 117.057 594.067 115.953C593.374 114.84 593.027 113.468 593.027 111.837V97.6719H597.056V111.837C597.056 112.833 597.222 113.648 597.554 114.283C597.886 114.908 598.354 115.372 598.96 115.675C599.565 115.978 600.283 116.129 601.113 116.129C601.953 116.129 602.671 115.978 603.267 115.675C603.872 115.372 604.336 114.908 604.658 114.283C604.98 113.648 605.142 112.833 605.142 111.837V97.6719ZM628.169 115.836V119H613.198V115.836H628.169ZM627.891 100.03L614.854 119H612.085V116.583L625.181 97.6719H627.891V100.03ZM626.455 97.6719V100.851H612.129V97.6719H626.455Z" fill="#6D9886"/>
<g clip-path="url(#clip0_25_47)">
<path d="M315.096 76.8411C316.844 78.9671 317.893 81.7002 317.893 84.6728C317.893 91.4644 312.408 96.9862 305.672 96.9862C305.663 96.9862 305.663 96.9862 305.663 96.9862C304.669 97.9617 303.638 98.8911 302.524 99.7286C300.564 101.21 298.466 102.434 296.266 103.401H309.482C310.789 103.401 311.847 104.468 311.847 105.784V116.616C311.847 117.932 310.789 119 309.482 119H258.378C257.071 119 256.013 117.932 256.013 116.616V105.784C256.013 104.468 257.071 103.401 258.378 103.401H271.152C263.476 100.014 257.412 93.618 254.412 85.7035H244.481C243.175 85.7035 242.107 84.6359 242.107 83.3198V73.841C242.107 72.5249 243.175 71.4666 244.481 71.4666H274.51C275.817 71.4666 276.876 72.5249 276.876 73.841V83.3198C276.876 84.6359 275.817 85.7035 274.51 85.7035H269.799C273.075 89.8079 278.081 92.4492 283.704 92.4492H283.861C287.533 92.4492 291.103 91.2436 294.223 88.9796C293.726 87.636 293.441 86.1913 293.441 84.6728C293.441 79.3166 296.864 74.7613 301.631 73.0679C300.978 63.8743 293.394 56.5487 284.099 56.4014L278.108 63.3127C277.253 64.3066 275.762 64.408 274.777 63.5428L274.069 62.9264L271.087 66.3684C270.231 67.3622 268.731 67.4636 267.746 66.5985L262.767 62.2271C261.782 61.3619 261.672 59.8527 262.537 58.8589L265.519 55.4169L264.819 54.8094C263.835 53.9443 263.734 52.435 264.589 51.4412L280.667 32.8791C281.532 31.8943 283.023 31.7932 284.007 32.649L284.707 33.2655L287.698 29.8145C288.563 28.8296 290.054 28.7192 291.038 29.5844L296.026 33.965C297.011 34.8302 297.112 36.3394 296.256 37.324L293.265 40.775L293.965 41.3914C294.913 42.2197 295.033 43.6278 294.287 44.6217C306.453 48.9747 315.205 60.6531 315.205 74.3746C315.206 75.2032 315.16 76.0221 315.096 76.8411ZM313.163 84.6728C313.163 80.5132 309.804 77.1264 305.672 77.1264C301.54 77.1264 298.171 80.5132 298.171 84.6728C298.171 88.8323 301.539 92.2191 305.672 92.2191C309.804 92.2191 313.163 88.8326 313.163 84.6728ZM307.117 114.233V108.168H260.743V114.233H307.117ZM306.334 72.3962C307.779 72.479 309.159 72.7919 310.43 73.3349C309.969 61.4723 301.843 51.6068 290.892 48.5607L287.892 52.0304C297.785 53.8525 305.451 62.1533 306.334 72.3962ZM299.69 95.9188C299.819 95.8177 299.938 95.7071 300.067 95.606C298.806 94.9433 297.675 94.0691 296.717 93.0291C292.843 95.7623 288.425 97.2073 283.879 97.2073H283.704C275.311 97.2073 268.013 92.5689 264.121 85.7038H259.574C263.798 94.8884 273.011 101.284 283.704 101.284C289.52 101.284 295.042 99.4343 299.69 95.9188ZM289.695 37.6461L291.131 35.9896L289.714 34.7471L288.278 36.4036L289.695 37.6461ZM281.275 52.4167L289.07 43.4163L282.683 37.8117L274.888 46.8121L281.275 52.4167ZM276.103 58.3894L278.164 56.015L271.777 50.4011L269.716 52.7848L276.103 58.3894ZM272.145 80.9365V76.2246H246.847V80.9365H272.145ZM269.081 61.4447L270.507 59.7975L269.081 58.555L267.655 60.2022L269.081 61.4447Z" fill="#1F2937"/>
<path d="M305.672 77.1265C309.804 77.1265 313.163 80.5133 313.163 84.6728C313.163 88.8324 309.804 92.2192 305.672 92.2192C301.54 92.2192 298.171 88.8327 298.171 84.6728C298.171 80.513 301.54 77.1265 305.672 77.1265ZM309.877 84.6728C309.877 82.3444 307.991 80.4395 305.672 80.4395C303.352 80.4395 301.466 82.3444 301.466 84.6728C301.466 87.0103 303.352 88.9062 305.672 88.9062C307.991 88.9062 309.877 87.0103 309.877 84.6728Z" fill="#6D9886"/>
<path d="M305.672 80.4396C307.991 80.4396 309.877 82.3445 309.877 84.6729C309.877 87.0104 307.991 88.9063 305.672 88.9063C303.352 88.9063 301.466 87.0104 301.466 84.6729C301.466 82.3448 303.352 80.4396 305.672 80.4396ZM306.767 84.6729C306.767 84.0655 306.27 83.5687 305.672 83.5687C305.064 83.5687 304.576 84.0658 304.576 84.6729C304.576 85.2801 305.064 85.7772 305.672 85.7772C306.27 85.7775 306.767 85.2804 306.767 84.6729Z" fill="#1F2937"/>
<path d="M307.116 108.168H260.743V114.233H307.116V108.168Z" fill="#6D9886"/>
<path d="M310.43 73.335C309.159 72.792 307.779 72.4791 306.334 72.3963C305.451 62.1534 297.785 53.8526 287.892 52.0305L290.892 48.5609C301.843 51.6069 309.969 61.4724 310.43 73.335Z" fill="#EAEEEF"/>
<path d="M305.672 83.5686C306.27 83.5686 306.767 84.0657 306.767 84.6728C306.767 85.28 306.27 85.7771 305.672 85.7771C305.064 85.7771 304.576 85.28 304.576 84.6728C304.576 84.0657 305.064 83.5686 305.672 83.5686Z" fill="#EAEEEF"/>
<path d="M300.067 95.6061C299.938 95.7072 299.819 95.8178 299.69 95.9189C295.042 99.4345 289.52 101.284 283.704 101.284C273.01 101.284 263.798 94.8882 259.574 85.7036H264.12C268.013 92.569 275.311 97.2071 283.704 97.2071H283.879C288.425 97.2071 292.842 95.7624 296.717 93.0289C297.674 94.069 298.806 94.9434 300.067 95.6061Z" fill="#EAEEEF"/>
<path d="M291.131 35.9898L289.695 37.6463L288.278 36.4038L289.714 34.7473L291.131 35.9898Z" fill="#EAEEEF"/>
<path d="M289.07 43.4165L281.275 52.4169L274.888 46.8123L282.683 37.8119L289.07 43.4165Z" fill="#EAEEEF"/>
<path d="M278.164 56.0152L276.103 58.3896L269.716 52.785L271.777 50.4013L278.164 56.0152Z" fill="#6D9886"/>
<path d="M272.146 76.2247H246.847V80.9366H272.146V76.2247Z" fill="#6D9886"/>
<path d="M270.507 59.7976L269.081 61.4449L267.655 60.2026L269.081 58.5551L270.507 59.7976Z" fill="#EAEEEF"/>
<path d="M307.117 114.233V108.168H303.497C295.981 111.535 280.142 114.068 265.309 114.233H307.117Z" fill="#6D9886"/>
</g>
<defs>
<clipPath id="clip0_25_47">
<rect width="90" height="90" fill="white" transform="translate(235 29)"/>
</clipPath>
</defs>
</svg>
