<svg width="90" height="90" viewBox="0 0 90 90" fill="none" xmlns="http://www.w3.org/2000/svg">
<g clip-path="url(#clip0_20_7)">
<path d="M80.0955 47.8411C81.8441 49.9671 82.8932 52.7002 82.8932 55.6728C82.8932 62.4644 77.4082 67.9862 70.6718 67.9862C70.6625 67.9862 70.6625 67.9862 70.6625 67.9862C69.6687 68.9617 68.6379 69.8911 67.5244 70.7286C65.5643 72.2103 63.4659 73.4342 61.2664 74.4007H74.4819C75.7886 74.4007 76.847 75.4684 76.847 76.7844V87.6162C76.847 88.9322 75.7886 89.9999 74.4819 89.9999H23.3779C22.0712 89.9999 21.0128 88.9322 21.0128 87.6162V76.7844C21.0128 75.4684 22.0712 74.4007 23.3779 74.4007H36.1515C28.4764 71.0139 22.4117 64.618 19.4115 56.7035H9.48149C8.17475 56.7035 7.10712 55.6359 7.10712 54.3198V44.841C7.10712 43.5249 8.17475 42.4666 9.48149 42.4666H39.5104C40.8172 42.4666 41.8755 43.5249 41.8755 44.841V54.3198C41.8755 55.6359 40.8172 56.7035 39.5104 56.7035H34.7986C38.0747 60.8079 43.0811 63.4492 48.704 63.4492H48.8606C52.5327 63.4492 56.1034 62.2436 59.223 59.9796C58.7259 58.636 58.4406 57.1913 58.4406 55.6728C58.4406 50.3166 61.864 45.7613 66.6311 44.0679C65.9777 34.8743 58.3944 27.5487 49.0994 27.4014L43.1084 34.3127C42.2526 35.3066 40.7617 35.408 39.7771 34.5428L39.0686 33.9264L36.0867 37.3684C35.2309 38.3622 33.7307 38.4636 32.7461 37.5985L27.7673 33.2271C26.7825 32.3619 26.6721 30.8527 27.5372 29.8589L30.519 26.4169L29.8195 25.8094C28.8346 24.9443 28.7335 23.435 29.5894 22.4412L45.6667 3.8791C46.5319 2.89426 48.0228 2.79316 49.0073 3.64901L49.7069 4.26548L52.6977 0.814472C53.5629 -0.17037 55.0538 -0.280765 56.0383 0.584385L61.0262 4.96504C62.011 5.83019 62.1121 7.33941 61.2563 8.32396L58.2654 11.775L58.965 12.3914C59.9129 13.2197 60.0326 14.6278 59.2872 15.6217C71.4533 19.9747 80.2053 31.6531 80.2053 45.3746C80.2059 46.2032 80.1597 47.0221 80.0955 47.8411ZM78.1627 55.6728C78.1627 51.5132 74.8038 48.1264 70.6715 48.1264C66.5395 48.1264 63.171 51.5132 63.171 55.6728C63.171 59.8323 66.5393 63.2191 70.6715 63.2191C74.8038 63.2191 78.1627 59.8326 78.1627 55.6728ZM72.1165 85.2325V79.1678H25.743V85.2325H72.1165ZM71.3342 43.3962C72.7789 43.479 74.1594 43.7919 75.4296 44.3349C74.9694 32.4723 66.8431 22.6068 55.8919 19.5607L52.8918 23.0304C62.7847 24.8525 70.4507 33.1533 71.3342 43.3962ZM64.6898 66.9188C64.8185 66.8177 64.9382 66.7071 65.0672 66.606C63.8064 65.9433 62.6746 65.0691 61.7173 64.0291C57.843 66.7623 53.4255 68.2073 48.8792 68.2073H48.7043C40.3114 68.2073 33.0134 63.5689 29.1205 56.7038H24.5743C28.7983 65.8884 38.0105 72.2843 48.7043 72.2843C54.5204 72.284 60.0422 70.4343 64.6898 66.9188ZM54.6953 8.64614L56.131 6.98963L54.7139 5.74711L53.2782 7.40361L54.6953 8.64614ZM46.2748 23.4167L54.0695 14.4163L47.6826 8.81174L39.8878 17.8121L46.2748 23.4167ZM41.1027 29.3894L43.1642 27.015L36.7773 21.4011L34.7158 23.7848L41.1027 29.3894ZM37.1454 51.9365V47.2246H11.8468V51.9365H37.1454ZM34.081 32.4447L35.5075 30.7975L34.081 29.555L32.6546 31.2022L34.081 32.4447Z" fill="#1F2937"/>
<path d="M70.6715 48.1265C74.8035 48.1265 78.1627 51.5133 78.1627 55.6728C78.1627 59.8324 74.8038 63.2192 70.6715 63.2192C66.5396 63.2192 63.1711 59.8327 63.1711 55.6728C63.1711 51.513 66.5396 48.1265 70.6715 48.1265ZM74.8773 55.6728C74.8773 53.3444 72.9907 51.4395 70.6715 51.4395C68.3524 51.4395 66.4658 53.3444 66.4658 55.6728C66.4658 58.0103 68.3524 59.9062 70.6715 59.9062C72.9907 59.9062 74.8773 58.0103 74.8773 55.6728Z" fill="#6D9886"/>
<path d="M70.6715 51.4396C72.9907 51.4396 74.8773 53.3445 74.8773 55.6729C74.8773 58.0104 72.9907 59.9063 70.6715 59.9063C68.3524 59.9063 66.4658 58.0104 66.4658 55.6729C66.4658 53.3448 68.3524 51.4396 70.6715 51.4396ZM71.7668 55.6729C71.7668 55.0655 71.2697 54.5687 70.6715 54.5687C70.0641 54.5687 69.5763 55.0658 69.5763 55.6729C69.5763 56.2801 70.0641 56.7772 70.6715 56.7772C71.2697 56.7775 71.7668 56.2804 71.7668 55.6729Z" fill="#1F2937"/>
<path d="M72.1162 79.168H25.743V85.2327H72.1162V79.168Z" fill="#6D9886"/>
<path d="M75.4296 44.335C74.1594 43.792 72.7792 43.4791 71.3342 43.3963C70.4507 33.1534 62.7847 24.8526 52.8915 23.0305L55.8916 19.5609C66.8431 22.6069 74.9694 32.4724 75.4296 44.335Z" fill="#EAEEEF"/>
<path d="M70.6715 54.5686C71.2697 54.5686 71.7668 55.0657 71.7668 55.6728C71.7668 56.28 71.2697 56.7771 70.6715 56.7771C70.0641 56.7771 69.5763 56.28 69.5763 55.6728C69.5763 55.0657 70.0644 54.5686 70.6715 54.5686Z" fill="#EAEEEF"/>
<path d="M65.0669 66.6061C64.9383 66.7072 64.8186 66.8178 64.6896 66.9189C60.0422 70.4345 54.5204 72.2842 48.704 72.2842C38.0102 72.2842 28.7983 65.8882 24.574 56.7036H29.1202C33.0131 63.569 40.3108 68.2071 48.704 68.2071H48.8789C53.4252 68.2071 57.8425 66.7624 61.717 64.0289C62.6743 65.069 63.8064 65.9434 65.0669 66.6061Z" fill="#EAEEEF"/>
<path d="M56.131 6.98978L54.6953 8.64629L53.2782 7.40376L54.7139 5.74725L56.131 6.98978Z" fill="#EAEEEF"/>
<path d="M54.0695 14.4165L46.2748 23.4169L39.8878 17.8123L47.6829 8.81189L54.0695 14.4165Z" fill="#EAEEEF"/>
<path d="M43.1642 27.0152L41.1027 29.3896L34.7158 23.785L36.7773 21.4013L43.1642 27.0152Z" fill="#6D9886"/>
<path d="M37.1457 47.2247H11.8469V51.9366H37.1457V47.2247Z" fill="#6D9886"/>
<path d="M35.5074 30.7976L34.081 32.4449L32.6546 31.2026L34.081 29.5551L35.5074 30.7976Z" fill="#EAEEEF"/>
<path d="M72.1166 85.2327V79.168H68.497C60.9812 82.5353 45.1421 85.068 30.3087 85.2327H72.1166Z" fill="#6D9886"/>
</g>
<defs>
<clipPath id="clip0_20_7">
<rect width="90" height="90" fill="white"/>
</clipPath>
</defs>
</svg>
